<?xml version="1.0" encoding="utf-8"?>
<!-- Generator: Adobe Illustrator 19.0.0, SVG Export Plug-In . SVG Version: 6.00 Build 0)  -->
<svg version="1.1" id="Calque_1" xmlns="http://www.w3.org/2000/svg" xmlns:xlink="http://www.w3.org/1999/xlink" x="0px" y="0px"
	 viewBox="-300 709 798 454" style="enable-background:new -300 709 798 454;" xml:space="preserve">
<style type="text/css">
	.st0{enable-background:new    ;}
	.st1{opacity:0.2;}
</style>
<g class="st1">
	<path d="M-272.2,1028.6V892.1h48.5c14.9,0,26.3,2.8,34.4,8.5c8,5.6,12.1,13.5,12.1,23.4c0,7.4-2.5,13.9-7.5,19.5
		c-5,5.6-11.3,9.4-18.9,11.5v0.4c9.5,1.2,17.2,4.7,23,10.6c5.8,5.9,8.8,13.2,8.8,22.1c0,12.4-4.4,22.2-13.2,29.6
		c-8.8,7.3-20.9,11-36.1,11H-272.2z M-243.1,913.8v33.7h13.8c6.6,0,11.9-1.6,15.7-4.8c3.8-3.2,5.7-7.6,5.7-13.3
		c0-10.5-7.6-15.7-22.9-15.7H-243.1z M-243.1,969.5v37.4h17.3c7.3,0,13.1-1.7,17.2-5.1c4.1-3.4,6.2-8.1,6.2-14.2
		c0-5.8-2.1-10.2-6.2-13.4c-4.1-3.2-10-4.8-17.5-4.8H-243.1z"/>
	<path d="M-154.2,899.7c0-4.3,1.5-7.9,4.6-10.6c3.1-2.7,7-4.1,11.8-4.1c4.9,0,8.9,1.4,12,4.2c3.1,2.8,4.6,6.3,4.6,10.5
		c0,4.3-1.6,7.9-4.7,10.7c-3.1,2.8-7.1,4.3-11.9,4.3c-4.8,0-8.7-1.4-11.8-4.3C-152.7,907.5-154.2,903.9-154.2,899.7z M-152.1,1028.6
		v-97.4h28.4v97.4H-152.1z"/>
	<path d="M-40.9,1027.5c-4.3,2.3-10.8,3.5-19.5,3.5c-20.7,0-31-10.9-31-32.6v-46h-16v-21.2h16v-21.4l28.3-8.1v29.5h22.2v21.2h-22.2
		v41.1c0,10.4,4.1,15.6,12.3,15.6c3.2,0,6.5-0.9,9.9-2.8V1027.5z"/>
</g>
<g class="st1">
	<path d="M-14.5,1022.3v6.2h-15.2v-76.9h15.2v32.9h0.2c4-6.1,9.6-9.2,17-9.2c6.5,0,11.7,2.3,15.4,6.9c3.7,4.6,5.6,10.9,5.6,18.9
		c0,8.6-2.1,15.6-6.4,20.8c-4.3,5.3-9.9,7.9-17,7.9c-6.5,0-11.3-2.5-14.6-7.5H-14.5z M-14.7,1006.1c0,3.4,1,6.3,3.1,8.6
		c2,2.3,4.6,3.5,7.8,3.5c3.8,0,6.7-1.5,8.9-4.4c2.1-2.9,3.2-7.1,3.2-12.5c0-4.5-1-8-2.9-10.5C3.3,988.3,0.5,987-3,987
		c-3.4,0-6.2,1.3-8.4,3.8s-3.3,5.8-3.3,9.8V1006.1z"/>
	<path d="M67.5,990.4c-1.8-1.1-4.1-1.6-6.7-1.6c-3.4,0-6.2,1.3-8.2,3.9c-2,2.6-3,6.2-3,10.9v25H34.4v-52h15.2v9.8h0.2
		c2.5-7.1,7.1-10.7,13.7-10.7c1.8,0,3.1,0.2,4.1,0.6V990.4z"/>
	<path d="M120.9,1006.9H86.7c0.5,8.1,5.4,12.1,14.6,12.1c5.7,0,10.8-1.4,15.2-4.2v11.1c-4.7,2.7-10.9,4-18.6,4
		c-8.3,0-14.7-2.3-19.3-7c-4.6-4.7-6.9-11.2-6.9-19.5c0-8.3,2.4-15,7.3-20.2c4.9-5.2,11-7.8,18.4-7.8c7.4,0,13.1,2.2,17.3,6.7
		c4.2,4.5,6.2,10.6,6.2,18.4V1006.9z M106.7,997.4c0-7.8-3.1-11.7-9.4-11.7c-2.6,0-4.9,1.1-6.9,3.2c-2,2.1-3.3,5-3.8,8.5H106.7z"/>
	<path d="M132,979.8c2.3-1.3,5.5-2.4,9.4-3.2c3.9-0.8,7.3-1.2,10.1-1.2c14.5,0,21.8,7.3,21.8,21.8v31.4h-14.4v-7.6h-0.2
		c-3.5,5.9-8.7,8.8-15.6,8.8c-4.9,0-8.9-1.4-11.8-4.2c-3-2.8-4.4-6.6-4.4-11.4c0-10,5.9-15.8,17.8-17.4l14.3-1.9
		c0-6-3.1-9.1-9.4-9.1c-6.2,0-12,1.9-17.5,5.6V979.8z M149.2,1005.1c-5.5,0.7-8.2,3.2-8.2,7.4c0,1.9,0.7,3.5,2,4.7
		c1.3,1.2,3.1,1.8,5.4,1.8c3.1,0,5.7-1.1,7.7-3.3c2-2.2,3-4.9,3-8.2v-3.7L149.2,1005.1z"/>
	<path d="M237.4,1028.6H219l-17.3-25.7h-0.2v25.7h-15.2v-76.9h15.2v49h0.2l16.2-24H236l-19.3,24.5L237.4,1028.6z"/>
	<path d="M288.3,1006.9h-34.2c0.5,8.1,5.4,12.1,14.6,12.1c5.7,0,10.8-1.4,15.2-4.2v11.1c-4.7,2.7-10.9,4-18.6,4
		c-8.3,0-14.7-2.3-19.3-7c-4.6-4.7-6.9-11.2-6.9-19.5c0-8.3,2.4-15,7.3-20.2c4.9-5.2,11-7.8,18.4-7.8c7.4,0,13.1,2.2,17.3,6.7
		c4.2,4.5,6.2,10.6,6.2,18.4V1006.9z M274.2,997.4c0-7.8-3.1-11.7-9.4-11.7c-2.6,0-4.9,1.1-6.9,3.2c-2,2.1-3.3,5-3.8,8.5H274.2z"/>
	<path d="M331.3,990.4c-1.8-1.1-4.1-1.6-6.7-1.6c-3.4,0-6.2,1.3-8.2,3.9c-2,2.6-3,6.2-3,10.9v25h-15.2v-52h15.2v9.8h0.2
		c2.5-7.1,7.1-10.7,13.7-10.7c1.8,0,3.1,0.2,4.1,0.6V990.4z"/>
</g>
<rect x="350" y="913" class="st1" width="42" height="42"/>
<rect x="403.5" y="893" class="st1" width="62" height="62"/>
<rect x="373.5" y="967" class="st1" width="30" height="30"/>
<rect x="340.8" y="963" class="st1" width="15" height="15"/>
</svg>
