<?xml version="1.0" encoding="utf-8"?>
<!-- Generator: Adobe Illustrator 19.0.0, SVG Export Plug-In . SVG Version: 6.00 Build 0)  -->
<svg version="1.1" id="Calque_1" xmlns="http://www.w3.org/2000/svg" xmlns:xlink="http://www.w3.org/1999/xlink" x="0px" y="0px"
	 viewBox="0 0 798 454" style="enable-background:new 0 0 798 454;" xml:space="preserve">
<style type="text/css">
	.st0{opacity:0.2;}
</style>
<g class="st0">
	<path d="M104.1,321.5c-14.3,0-24.7-4.1-31-12.4s-9.5-20.3-9.5-36.1v-45.6c0-8,0.7-15,2.1-20.8c1.4-5.8,3.7-10.9,6.9-15.3
		c3.2-4.4,7.7-7.7,13.4-9.9c5.7-2.2,12.6-3.3,20.9-3.3c15,0,25.8,3.4,32.3,10.2c6.5,6.8,9.8,17.1,9.8,30.8v6.8h-26.5v-7.3
		c0-3.1-0.1-5.6-0.2-7.6c-0.2-2-0.5-4-1.1-6c-0.6-2-1.4-3.5-2.5-4.6c-1.1-1.1-2.6-1.9-4.5-2.6c-1.9-0.7-4.2-1-7-1
		c-2.1,0-3.9,0.2-5.5,0.7c-1.6,0.5-3,1.1-4.1,1.8c-1.1,0.7-2,1.7-2.8,3c-0.8,1.3-1.3,2.5-1.7,3.8c-0.4,1.2-0.7,2.8-0.9,4.7
		c-0.2,1.9-0.4,3.6-0.4,5.1c-0.1,1.5-0.1,3.3-0.1,5.7v56.5c0,8.4,1.1,14.6,3.4,18.5c2.3,3.9,6.6,5.9,12.9,5.9c3.3,0,6.1-0.6,8.3-1.7
		c2.2-1.2,4-2.9,5.2-5.2c1.2-2.3,2.1-5,2.7-8c0.5-3,0.8-6.7,0.8-10.9v-11.5h-16.4v-16.5h41.3v71.1h-17.9l-2-14.2
		C125.2,316.2,116.7,321.5,104.1,321.5z"/>
	<path d="M169.4,319.7v-99.9h25.6v15.4c3.6-5.9,7.2-10.2,10.9-12.7c3.7-2.6,7.6-3.9,11.9-3.9c1.3,0,2.6,0.1,3.8,0.4v23.4
		c-2.9-1-5.8-1.5-8.9-1.5c-3.7,0.1-6.9,1-9.7,2.5c-2.8,1.6-5.5,4.2-8.1,7.8v68.5H169.4z"/>
	<path d="M251.1,321.2c-6.2,0-10.7-2.1-13.5-6.2c-2.8-4.2-4.3-9.3-4.3-15.4v-79.8h25.5v75c0,3.1,0.5,5.4,1.6,6.9
		c1,1.5,3,2.3,5.8,2.2c3,0,6.6-1.4,11-4.2v-79.9h25.5v99.9h-25.5v-9.4C268.6,317.6,259.9,321.2,251.1,321.2z"/>
	<path d="M368.6,321.3c-6.8,0-13.5-3-20.2-8.9v7.3h-25.6V179.7h25.6v47.6c6.7-6.1,13.9-9.2,21.9-9.1c3.8,0.1,7.2,0.9,10.2,2.4
		c3,1.6,5.3,3.5,7,5.9c1.7,2.3,3.1,5.1,4.1,8.3c1.1,3.2,1.8,6.1,2.2,8.9c0.4,2.7,0.5,5.5,0.5,8.3v32.7c0,5.1-0.5,9.7-1.4,14
		c-0.9,4.2-2.3,8.1-4.3,11.6c-2,3.5-4.6,6.2-8,8.1C377.2,320.3,373.2,321.3,368.6,321.3z M359.7,304.3c1.9,0,3.5-0.5,4.7-1.4
		c1.2-1,2.2-2.4,2.7-4.3c0.6-1.9,1-3.9,1.1-5.8c0.2-2,0.3-4.4,0.3-7.3V251c0-2.4-0.1-4.4-0.4-6.2c-0.2-1.8-0.7-3.5-1.4-5.2
		c-0.7-1.7-1.7-2.9-3-3.8c-1.3-0.9-2.9-1.3-4.8-1.2c-3.5,0.1-7,1.4-10.7,3.9v62.7C351.9,303.3,355.6,304.3,359.7,304.3z"/>
	<path d="M440.1,321.3c-9,0-16.3-3.4-22.1-10.2c-5.7-6.8-9.7-16.6-11.8-29.4l19.4-9.6c1.3,8.1,3.2,14.3,5.7,18.5
		c2.4,4.2,5.5,6.2,9.2,6c2.7-0.1,4.9-1.4,6.6-3.9c1.7-2.5,2.5-5.6,2.4-9.3c-0.2-5.3-3.8-12-10.7-20.1l-14.6-17
		c-10.5-12.3-15.6-25.1-15.4-38.5c0.2-11.8,3.1-21.2,8.8-28.2c5.7-7,13-10.5,21.8-10.5c8.5,0,15.4,3.5,20.7,10.5
		c5.3,7,8.8,16.3,10.3,28.1l-16.8,9.6c-2.3-15.3-6.7-23-13-23.1c-2.7-0.1-4.8,1-6.5,3.4c-1.6,2.3-2.4,5.1-2.4,8.4
		c-0.1,4.5,3,10.4,9.1,17.6l14.8,18.3c2.5,3,4.6,5.7,6.2,8c1.6,2.4,3.4,5.3,5.2,8.7c1.8,3.4,3.1,7.1,4,11c0.9,3.9,1.3,8.1,1.3,12.6
		c0,12.5-3,22.1-9.1,29C457.3,317.8,449.5,321.3,440.1,321.3z"/>
	<path d="M486.3,352.6V219.7h25.6v7.7c6.7-6.2,14-9.3,21.9-9.2c3.8,0.1,7.2,0.9,10.2,2.4c3,1.6,5.3,3.5,7,5.9
		c1.7,2.3,3.1,5.1,4.1,8.3c1.1,3.2,1.8,6.1,2.2,8.9c0.4,2.7,0.5,5.5,0.5,8.3v32.7c0,5.1-0.5,9.7-1.4,14c-0.9,4.2-2.3,8.1-4.3,11.6
		c-2,3.5-4.6,6.2-8,8.1c-3.4,1.9-7.4,2.9-11.9,2.9c-6.7,0-13.5-3-20.2-9v40.3H486.3z M523.2,304.3c1.9,0,3.5-0.5,4.8-1.5
		c1.3-1,2.2-2.4,2.8-4.3c0.6-1.9,1-3.8,1.2-5.8c0.2-2,0.3-4.4,0.3-7.2V251c0-2.3-0.1-4.4-0.4-6.2c-0.3-1.8-0.7-3.6-1.4-5.2
		c-0.7-1.7-1.7-2.9-3-3.8c-1.3-0.9-3-1.3-4.9-1.2c-3.4,0.1-6.9,1.4-10.6,4v62.6C515.6,303.3,519.4,304.3,523.2,304.3z"/>
	<path d="M690.9,321c-4.9-0.1-9.1-0.8-12.6-2.3c-3.4-1.5-6.1-3.6-8-6.3c-1.9-2.7-3.2-5.8-4-9.2c-0.8-3.4-1.2-7.3-1.2-11.8v-56.1
		h-10.7v-15.6h10.7v-29.4h25.7v29.4h16.5v15.6h-16.5V293c0,3.3,0.8,5.6,2.3,7c1.6,1.4,4,2.2,7.5,2.2c2.4,0.1,5-0.1,7.8-0.5v18.1
		C701.1,320.7,695.3,321.1,690.9,321z"/>
</g>
<path class="st0" d="M646.7,333.4c-0.5,0-0.9,0-1.4,0.1l-11.8-20.4c0.3-0.3,0.6-0.6,0.9-0.9c5.8-6,8.6-14.7,8.6-26v-33
	c0-11.3-2.9-19.9-8.6-26c-3.3-3.5-7.6-6-12.9-7.4v-48c6.9-2.9,11.7-9.7,11.7-17.6c0-10.6-8.6-19.2-19.2-19.2s-19.2,8.6-19.2,19.2
	c0,7.9,4.8,14.7,11.7,17.6v46.4c-6.7,0.2-12.3,1.4-16.9,3.7l-54.4-59.7c3.1-6.8,2.1-15-3.2-20.9c-7.1-7.8-19.2-8.4-27.1-1.3
	c-7.8,7.1-8.4,19.2-1.3,27.1c5.3,5.9,13.5,7.6,20.5,5.2l54.5,59.8c-3.3,5.5-5,12.6-5,21.2v33c0,11.3,2.9,19.9,8.6,26
	c5.7,6,14.4,9.1,26,9.1c4.4,0,8.4-0.4,11.9-1.3l11.8,20.4c-2.8,3.3-4.4,7.6-4.4,12.2c0,10.6,8.6,19.2,19.2,19.2s19.2-8.6,19.2-19.2
	S657.3,333.4,646.7,333.4z M613.4,303.4c-1.3,0.8-3,1.3-5.1,1.3c-1.7,0-3.1-0.3-4.3-1c-1.2-0.6-2.1-1.4-2.7-2.4
	c-0.7-0.9-1.2-2.2-1.5-3.8c-0.3-1.6-0.5-3.1-0.6-4.5c-0.1-1.4-0.1-3.1-0.1-5.2v-36.2c0-2.6,0.1-4.8,0.3-6.5c0.2-1.7,0.6-3.4,1.1-5.1
	c0.6-1.8,1.5-3.1,2.8-4c1.3-0.9,3-1.3,5.1-1.3c1.7,0,3.1,0.3,4.3,1c1.2,0.6,2.1,1.4,2.7,2.4c0.7,0.9,1.2,2.2,1.5,3.8
	c0.3,1.6,0.5,3.1,0.6,4.5c0.1,1.4,0.1,3.1,0.1,5.2v36.2c0,2.6-0.1,4.8-0.3,6.5c-0.2,1.7-0.6,3.4-1.1,5.1
	C615.7,301.2,614.7,302.5,613.4,303.4z"/>
</svg>
