<?xml version="1.0" encoding="utf-8"?>
<!-- Generator: Adobe Illustrator 19.0.0, SVG Export Plug-In . SVG Version: 6.00 Build 0)  -->
<svg version="1.1" id="Calque_1" xmlns="http://www.w3.org/2000/svg" xmlns:xlink="http://www.w3.org/1999/xlink" x="0px" y="0px"
	 viewBox="-300 709 798 454" style="enable-background:new -300 709 798 454;" xml:space="preserve">
<style type="text/css">
	.st0{opacity:0.2;enable-background:new    ;}
	.st1{fill:none;stroke:#FFFFFF;stroke-width:6;stroke-miterlimit:10;}
	.st2{fill:none;stroke:#FFFFFF;stroke-width:6;stroke-linecap:round;stroke-miterlimit:10;}
</style>
<path class="st0" d="M-193.7,898.3c-53,0-96,43-96,96c0,23,8.1,44.1,21.6,60.6l0,0l-7.6,35.4l39.6-9.9l0,0
	c12.8,6.3,27.2,9.9,42.4,9.9c53,0,96-43,96-96C-97.7,941.3-140.6,898.3-193.7,898.3z"/>
<path class="st1" d="M-205.5,961.1c3.7-1.3,7.7-2,11.8-2c19.5,0,35.2,15.8,35.2,35.3s-15.8,35.3-35.2,35.3s-35.3-15.8-35.3-35.3
	c0-9.7,3.9-18.5,10.2-24.8"/>
<polyline class="st2" points="-193.7,975.5 -193.7,996.6 -183.2,1006.5 "/>
<g class="st0">
	<path d="M-23.5,1052.7h-33.8v-93.3h12.6v82.8h21.2V1052.7z"/>
	<path d="M-6.7,959.4H5.9v93.3H-6.7V959.4z"/>
	<path d="M19.8,959.4H32l11.7,70.5l12.6-70.5h12l-19.6,93.3h-10L19.8,959.4z"/>
	<path d="M114.4,1052.7H80.6v-93.3h33.2V970H93.1v29.6h19.2v10.6H93.1v32.2h21.3V1052.7z"/>
</g>
<g class="st0">
	<path d="M212,978.9h-17.8v73.8h-19.8v-73.6h-18.2v-17.9H212V978.9z"/>
	<path d="M283.6,1052.7h-19.3l-3.1-14.3h-24.1l-3.3,14.3h-19.3l26.1-91.5h20.1L283.6,1052.7z M258.5,1023.6l-8.1-40l-0.3,0l-9.3,40
		H258.5z"/>
	<path d="M338,1052.7h-42.8v-91.5h19.6v73.5H338V1052.7z"/>
	<path d="M409.7,1052.7h-20.9l-18.3-46.2h-0.3v46.2h-20v-91.5h20v41.8h0.3l17.5-41.8h20.3l-19.4,43.5L409.7,1052.7z"/>
</g>
</svg>
