<?xml version="1.0" encoding="utf-8"?>
<!-- Generator: Adobe Illustrator 19.0.0, SVG Export Plug-In . SVG Version: 6.00 Build 0)  -->
<svg version="1.1" id="Calque_1" xmlns="http://www.w3.org/2000/svg" xmlns:xlink="http://www.w3.org/1999/xlink" x="0px" y="0px"
	 viewBox="0 0 798 454" style="enable-background:new 0 0 798 454;" xml:space="preserve">
<style type="text/css">
	.st0{opacity:0.2;}
	.st1{fill:#FFFFFF;}
</style>
<path class="st0" d="M230.7,347.3H49.3c-10.1,0-18.3-8.2-18.3-18.3V191.7c0-10.1,8.2-18.3,18.3-18.3h181.3
	c10.1,0,18.3,8.2,18.3,18.3V329C249,339.1,240.8,347.3,230.7,347.3z"/>
<g>
	<path class="st1" d="M113.4,273.8H85.7v39.5H69.8V206.6h46.6c23.1,0,34.8,9.5,34.8,28.4v7.8C151.2,264.5,136.3,273.8,113.4,273.8z
		 M135.3,235c0-10.3-3.2-14-18.9-14H85.7v38.4h27.7c16.1,0,21.9-4.1,21.9-16.6V235z"/>
</g>
<g class="st0">
	<path d="M309.6,300.2c-6.1,0-10.9-1.4-15.5-3.7v35.2h-12.3V232h12.3v3.5c5.4-2.7,11.2-4,17.8-4c13.9,0,25.4,8.6,25.4,24.6v17
		C337.3,291.6,325.8,300.2,309.6,300.2z M325,256.2c0-9.1-5.3-12.8-13-12.8c-6.7,0-11.7,1-17.9,3.5v37.8c4.2,1.8,10.7,3.7,15.4,3.7
		c10.2,0,15.5-3.7,15.5-15.2V256.2z"/>
	<path d="M394.7,298.8v-42.6c0-9.4-3.2-12.8-13-12.8c-6.2,0-11.5,1-17.9,3.4v52h-12.3v-96.5h12.3v33.3c6.2-2.9,11.5-4,17.8-4
		c16.6,0,25.4,9,25.4,24.6v42.6H394.7z"/>
	<path d="M460.8,298.8v-3.8c-5.6,2.9-12.2,4.5-18.2,4.5c-13.6,0-26.1-8.3-26.1-21.9v-2.1c0-11.4,10.1-18.9,23.5-18.9h20.8v-3.7
		c0-6.6-2.7-9.9-13-9.9c-8.2,0-16.8,1.6-24.5,4.5v-12c5.8-2.4,15.4-4,24.3-4c16.2,0,25.4,8,25.4,21.4v45.9H460.8z M460.8,267.9
		h-20.6c-8.3,0-11.4,3.4-11.4,7.5v2.1c0,6.4,4.3,10.6,13.6,10.6c6.1,0,12.3-1.4,18.4-4V267.9z"/>
	<path d="M510.4,299.6c-10.4,0-18.1-1.3-25.4-3.7V284c8.3,2.9,16.8,4.2,25.3,4.2c13.3,0,13.9-4,13.9-7v-2.6c0-11.7-39.5-1.4-39.5-27
		v-2.1c0-12,10.1-18.4,23.2-18.4c9.6,0,17.6,1.4,24,4.3v11.7c-9.4-3.5-15.4-4.5-23.8-4.5c-8.6,0-11,2.7-11,6.9v2.9
		c0,13.3,39.5,1.9,39.5,25.8v3C536.5,291.7,528.5,299.6,510.4,299.6z"/>
	<path d="M558.2,270.1v5.3c0,8.5,5,12.6,15.4,12.6c8.6,0,13.9-1.3,23-4.3v11.5c-6.2,2.6-14.1,4.2-22.9,4.2c-16,0-27.8-8.3-27.8-24
		v-20c0-15.2,9-23.4,25.3-23.4h9.6c11.7,0,20.6,8.2,20.6,19v19H558.2z M589.3,251.1c0-4.6-3-7.5-8.2-7.5h-9.8
		c-10.1,0-13.1,2.9-13.1,11.8v3.7h31V251.1z"/>
	<path d="M655.8,298.8L632,264.5l-4,3.5v30.7h-12.3v-96.5H628v51l24.8-21.3h18.7l-29.9,25.3l29.9,41.4H655.8z"/>
	<path d="M683,224.8v-11h12.3v11H683z M683,298.8V232h12.3v66.7H683z"/>
	<path d="M739.5,299.4c-13,0-20.3-6.4-20.3-18.9v-37.4h-9.6v-11.2h9.6v-19.7h12.2v19.7h17v11.2h-17v36.6c0,5.9,2.1,8,8.2,8
		s10.4-0.6,16-1.9v12C750.7,298.8,745.4,299.4,739.5,299.4z"/>
</g>
<polygon class="st1" points="157,259.4 199,206.6 224.7,206.6 181.3,259.4 227.7,313.3 202.3,313.3 "/>
</svg>
