<?xml version="1.0" encoding="utf-8"?>
<!-- Generator: Adobe Illustrator 19.0.0, SVG Export Plug-In . SVG Version: 6.00 Build 0)  -->
<svg version="1.1" id="Calque_1" xmlns="http://www.w3.org/2000/svg" xmlns:xlink="http://www.w3.org/1999/xlink" x="0px" y="0px"
	 viewBox="0 0 798 454" style="enable-background:new 0 0 798 454;" xml:space="preserve">
<style type="text/css">
	.st0{opacity:0.2;}
	.st1{fill:#FFFFFF;}
</style>
<circle class="st0" cx="104.8" cy="303.3" r="82.8"/>
<path class="st1" d="M23.8,318.8c0,0,2.1,12,5.4,17.8l78.2-26.8l-4.3,26.8l84.5-29.8c0,0-0.3-18.2-1.3-18.2s-59.7,17.8-59.7,17.8
	l4.5-26.2L23.8,318.8z"/>
<g class="st0">
	<path d="M248.2,312v24.5h-5.8v-63h16.3c3.3,0,6.2,0.4,8.8,1.2s4.7,2,6.5,3.6s3.1,3.5,4,5.7c0.9,2.3,1.4,4.8,1.4,7.7
		c0,2.9-0.5,5.6-1.5,8.1c-1,2.5-2.5,4.6-4.4,6.4c-1.9,1.8-4.3,3.2-7,4.2c-2.8,1-5.9,1.5-9.4,1.5H248.2z M248.2,278.8v27.8h8.3
		c5.4,0,9.5-1.3,12.3-3.8s4.2-6.1,4.2-10.7c0-8.9-5.2-13.3-15.6-13.3H248.2z"/>
	<path d="M317.7,337.6c-4.5,0-8.6-0.8-12.3-2.5c-3.6-1.7-6.7-3.9-9.3-6.8c-2.5-2.9-4.5-6.2-5.8-10.1s-2-8-2-12.5
		c0-4.9,0.7-9.4,2-13.5c1.4-4.1,3.3-7.6,6-10.5c2.6-2.9,5.8-5.2,9.6-6.8c3.8-1.6,8.1-2.4,12.9-2.4c4.5,0,8.5,0.8,12,2.4
		c3.5,1.6,6.6,3.8,9.1,6.6c2.5,2.8,4.4,6.2,5.7,10c1.3,3.9,2,8.1,2,12.6c0,4.8-0.7,9.2-2,13.3c-1.3,4.1-3.2,7.6-5.8,10.6
		c-2.5,3-5.7,5.3-9.4,7C326.8,336.7,322.5,337.6,317.7,337.6z M318.1,277.7c-3.8,0-7.2,0.7-10.1,2.2c-2.9,1.5-5.4,3.4-7.4,5.9
		c-2,2.5-3.6,5.4-4.6,8.7c-1,3.3-1.6,6.9-1.6,10.6c0,3.6,0.4,7,1.4,10.3c1,3.3,2.4,6.2,4.3,8.7c1.9,2.5,4.3,4.5,7.3,6
		c2.9,1.5,6.4,2.2,10.3,2.2c3.9,0,7.4-0.7,10.3-2c3-1.4,5.5-3.3,7.4-5.7c2-2.4,3.5-5.3,4.5-8.6s1.5-7,1.5-10.9
		c0-3.7-0.4-7.2-1.3-10.5c-0.9-3.3-2.3-6.2-4.2-8.7c-1.9-2.5-4.3-4.4-7.2-5.9C325.8,278.5,322.2,277.7,318.1,277.7z"/>
	<path d="M414.5,336.5h-6.1l-13.5-46.7c-0.3-1.1-0.6-2.2-0.8-3.2c-0.2-1-0.3-2-0.3-3h-0.2c-0.1,1.7-0.5,3.7-1.3,6.1l-14,46.8h-6.1
		l-18.6-63h6.5l13.9,49.4c0.3,1.1,0.6,2.1,0.8,3.1c0.2,1,0.3,1.9,0.5,2.8h0.2c0.2-1.3,0.7-3.3,1.5-5.9l14.8-49.4h4.6l13.8,49.6
		c0.3,1,0.5,2,0.7,2.9s0.4,1.9,0.5,2.8h0.2c0.1-0.6,0.2-1.2,0.4-2s0.4-1.6,0.6-2.5l13.8-50.9h6.4L414.5,336.5z"/>
	<path d="M442.5,336.5v-63h30.7v5.4h-24.9V302h23v5.3h-23v24h26.3v5.3H442.5z"/>
	<path d="M522.1,336.5l-9.5-18.1c-0.9-1.8-1.8-3.3-2.7-4.5s-1.8-2.2-2.7-2.9s-1.9-1.2-3-1.5c-1.1-0.3-2.3-0.5-3.6-0.5h-6.9v27.4
		h-5.8v-63h18.1c2.4,0,4.7,0.4,6.9,1.1c2.2,0.7,4.2,1.7,5.9,3.1s3.1,3.1,4.2,5.2s1.6,4.5,1.6,7.3c0,2.2-0.3,4.3-1,6.2
		s-1.6,3.5-2.9,5c-1.2,1.4-2.8,2.7-4.5,3.7c-1.8,1-3.8,1.8-6,2.3v0.2c0.8,0.4,1.6,0.8,2.3,1.4s1.4,1.2,2,2c0.7,0.8,1.3,1.7,2,2.7
		s1.3,2.2,2,3.5l10.6,19.5H522.1z M493.6,278.8v24.9H504c2.1,0,4-0.3,5.8-0.9s3.3-1.5,4.5-2.6c1.2-1.1,2.2-2.5,2.9-4.1
		c0.7-1.6,1-3.4,1-5.4c0-3.7-1.2-6.5-3.5-8.6s-5.8-3.1-10.2-3.1H493.6z"/>
	<path d="M538.7,336.5v-63h22.9c7,0,12.4,1.3,16.2,3.9s5.7,6.2,5.7,10.9c0,3.4-1.2,6.4-3.4,8.9c-2.3,2.5-5.2,4.3-8.8,5.3v0.2
		c4.5,0.6,8.1,2.2,10.7,5c2.7,2.8,4,6.1,4,10.1c0,5.8-2.1,10.3-6.2,13.7c-4.1,3.4-9.8,5.1-16.9,5.1H538.7z M552.9,283.9v14.9h6.2
		c2.9,0,5.2-0.7,6.9-2.1s2.5-3.4,2.5-5.9c0-4.6-3.5-6.9-10.4-6.9H552.9z M552.9,309.4V326h7.7c3.3,0,5.9-0.8,7.7-2.3
		c1.9-1.5,2.8-3.6,2.8-6.2c0-2.5-0.9-4.5-2.7-5.9s-4.4-2.2-7.7-2.2H552.9z"/>
	<path d="M651.8,336.5h-15.5l-4.5-14h-22.4l-4.4,14h-15.4l22.9-63h16.8L651.8,336.5z M628.6,311.6l-6.8-21.2
		c-0.5-1.6-0.8-3.5-1.1-5.7h-0.4c-0.1,1.8-0.5,3.7-1.1,5.5l-6.9,21.4H628.6z"/>
	<path d="M697.2,336.5h-37.5v-63h14.2V325h23.3V336.5z"/>
	<path d="M743.2,336.5h-37.5v-63h14.2V325h23.3V336.5z"/>
</g>
</svg>
