<?xml version="1.0" encoding="utf-8"?>
<!-- Generator: Adobe Illustrator 19.0.0, SVG Export Plug-In . SVG Version: 6.00 Build 0)  -->
<svg version="1.1" id="Calque_1" xmlns="http://www.w3.org/2000/svg" xmlns:xlink="http://www.w3.org/1999/xlink" x="0px" y="0px"
	 viewBox="-300 709 798 454" style="enable-background:new -300 709 798 454;" xml:space="preserve">
<style type="text/css">
	.st0{opacity:0.2;enable-background:new    ;}
	.st1{enable-background:new    ;}
	.st2{fill:#FFFFFF;}
</style>
<path class="st0" d="M-237,1113l50.3-247.8c0,0,7.8-30.3,37.5-36.5s64.5-4.5,64.5-4.5L435,824l-51.3,255.6c0,0-4.2,23.3-34.4,33.3
	c0,0-5,2.8-33.5,4.5C287.3,1119.1-237,1113-237,1113z"/>
<g class="st1">
	<path class="st2" d="M-102.9,1008.7h-15.4v-87h15.4V1008.7z M-100.5,921.7h3.2c3.9,0,7.2,0.6,9.9,1.7c2.7,1.2,4.9,2.8,6.6,4.9
		c1.7,2.1,2.9,4.7,3.7,7.7c0.8,3,1.1,6.3,1.1,10c0,4.6-0.5,8.5-1.5,11.6s-2.6,5.8-4.6,7.7c-2,2-4.5,3.4-7.5,4.3
		c-3,0.9-6.5,1.4-10.4,1.4h-0.6V960h1.3c2,0,3.5-0.3,4.7-0.9c1.1-0.6,2-1.4,2.6-2.6s1-2.7,1.1-4.4c0.2-1.8,0.2-3.9,0.2-6.3
		c0-2-0.1-3.8-0.3-5.4c-0.2-1.6-0.7-3-1.6-4.1s-2.1-2-3.7-2.6c-1.6-0.6-3.9-0.9-6.8-0.9h2.4V921.7z"/>
	<path class="st2" d="M-68.6,1008.7v-87h15.4v87H-68.6z M-50.8,958.3h4.8c1.7,0,3-0.5,4-1.4c1-0.9,1.8-2.1,2.3-3.4
		c0.6-1.3,0.9-2.7,1.1-4.2c0.2-1.5,0.3-2.7,0.3-3.8c0-1.1-0.1-2.4-0.2-3.8c-0.2-1.4-0.5-2.8-1-4.1c-0.5-1.3-1.2-2.4-2.1-3.2
		s-2.1-1.3-3.6-1.3h-5.5v-11.4h2.1c4.1,0,7.8,0.4,11,1.3c3.2,0.9,5.9,2.3,8.1,4.1s3.9,4.2,5,7.1c1.1,2.9,1.7,6.3,1.7,10.3
		c0,2-0.1,4-0.2,6.1c-0.2,2.1-0.6,4-1.3,5.9c-0.7,1.9-1.8,3.7-3.2,5.3c-1.5,1.6-3.5,3.1-6.2,4.2l12.4,42.7h-15.8l-10.1-40.6h-3.5
		V958.3z"/>
	<path class="st2" d="M8.3,932.1c-1.7,0.2-3,0.7-4.1,1.6c-1,0.9-1.9,2-2.5,3.3c-0.6,1.3-1,2.8-1.2,4.4c-0.2,1.6-0.3,3.1-0.3,4.7
		v38.1c0,1.6,0.1,3.1,0.3,4.7c0.2,1.6,0.6,3,1.2,4.3s1.4,2.4,2.5,3.3c1.1,0.9,2.4,1.4,4.1,1.6v12c-4.5-0.1-8.2-1-11.2-2.6
		c-3-1.6-5.4-3.7-7.2-6.4c-1.8-2.7-3.1-5.7-3.9-9.3s-1.2-7.3-1.2-11.3V950c0-4.1,0.4-7.9,1.1-11.5c0.8-3.6,2.1-6.7,3.9-9.4
		c1.8-2.7,4.2-4.8,7.3-6.4c3-1.6,6.7-2.5,11.2-2.6V932.1z M10.8,920c4.5,0.2,8.2,1,11.2,2.6c3,1.6,5.4,3.7,7.3,6.4
		c1.8,2.7,3.1,5.8,3.9,9.4s1.2,7.4,1.2,11.5v30.5c0,4-0.4,7.8-1.2,11.3c-0.8,3.5-2.1,6.7-3.9,9.4c-1.8,2.7-4.2,4.9-7.3,6.5
		c-3,1.6-6.8,2.5-11.3,2.7v-12c1.7-0.2,3.1-0.7,4.1-1.6c1.1-0.9,1.9-2,2.5-3.3s1-2.8,1.2-4.4c0.2-1.6,0.3-3.2,0.3-4.7v-38.1
		c0-1.6-0.1-3.1-0.3-4.7c-0.2-1.6-0.6-3.1-1.2-4.4c-0.6-1.3-1.4-2.4-2.5-3.3c-1.1-0.9-2.4-1.4-4.1-1.6V920z"/>
	<path class="st2" d="M64.6,953.2l-9.7,55.4H40.1l18.5-87h11.8L64.6,953.2z M72.9,921.7l18.5,87H76l-3.8-19.5H61l1.3-9h8.9L67,954.3
		L72.9,921.7z"/>
	<path class="st2" d="M120.4,932.1c-1.7,0.2-3,0.7-4,1.6c-1,0.9-1.8,2-2.4,3.3c-0.6,1.3-1,2.8-1.2,4.4c-0.2,1.6-0.3,3.1-0.3,4.7v38
		c0,1.6,0.1,3.1,0.3,4.7c0.2,1.6,0.6,3,1.2,4.4c0.6,1.3,1.4,2.5,2.4,3.3c1,0.9,2.4,1.4,4,1.6v12c-4.5-0.1-8.2-1-11.2-2.7
		s-5.4-3.8-7.2-6.5s-3.1-5.8-3.8-9.4c-0.7-3.5-1.1-7.3-1.1-11.3V950c0-4.1,0.4-7.9,1.1-11.5c0.7-3.6,2-6.7,3.8-9.4s4.2-4.8,7.2-6.4
		c3-1.6,6.7-2.5,11.2-2.6V932.1z M122.8,920c4.1,0.2,7.6,1,10.5,2.5c2.8,1.5,5.2,3.5,6.9,6c1.8,2.5,3,5.5,3.8,8.9s1.1,7.1,1.1,11.1
		v6.6H130v-7.4c0-1.7-0.1-3.5-0.2-5.2c-0.2-1.8-0.5-3.4-1-4.8s-1.2-2.7-2.2-3.7c-0.9-1-2.2-1.6-3.8-1.8V920z M122.8,998.2
		c1.6-0.2,2.8-0.8,3.8-1.8c0.9-1,1.7-2.2,2.2-3.7s0.8-3.1,1-4.9c0.2-1.8,0.3-3.6,0.3-5.3v-8.3h15.1v6.7c-0.1,3.8-0.4,7.4-1.1,10.9
		s-1.9,6.5-3.6,9.2c-1.7,2.7-4,4.9-6.8,6.5s-6.4,2.6-10.8,2.7V998.2z"/>
	<path class="st2" d="M149,921.7h42.7v11.6H149V921.7z M178.2,935.7v72.9h-15.5v-72.9H178.2z"/>
	<path class="st2" d="M197.6,921.7h15.5v87h-15.5V921.7z"/>
	<path class="st2" d="M236.7,1008.7l-16.7-87h14.8l8.2,50.5L236.7,1008.7z M254.1,921.7h14.7l-17.4,87h-12.3L254.1,921.7z"/>
	<path class="st2" d="M275.1,1008.7v-87h15.4v87H275.1z M292.9,921.7h17.1v10.8h-17.1V921.7z M292.9,958.1h11.5v11h-11.5V958.1z
		 M292.9,997.9h17.1v10.8h-17.1V997.9z"/>
</g>
</svg>
