<?xml version="1.0" encoding="utf-8"?>
<!-- Generator: Adobe Illustrator 19.0.0, SVG Export Plug-In . SVG Version: 6.00 Build 0)  -->
<svg version="1.1" id="Calque_1" xmlns="http://www.w3.org/2000/svg" xmlns:xlink="http://www.w3.org/1999/xlink" x="0px" y="0px"
	 viewBox="0 0 798 454" style="enable-background:new 0 0 798 454;" xml:space="preserve">
<style type="text/css">
	.st0{opacity:0.2;fill:none;stroke:#000000;stroke-width:10;stroke-miterlimit:10;}
	.st1{opacity:0.2;}
</style>
<path class="st0" d="M133,205v-36c0,0,24-37,55,0v36C188,205,161.7,193.5,133,205z"/>
<circle class="st1" cx="160.5" cy="252.8" r="44.8"/>
<circle class="st1" cx="150.9" cy="183.6" r="4.9"/>
<circle class="st1" cx="170" cy="183.6" r="4.9"/>
<path class="st1" d="M167.8,298.8c0,0,8,0.8,20-6.3v34.8c0,0,14.3,6.5,13.8,16.8H163c0,0,0-9,4-10L167.8,298.8z"/>
<path class="st1" d="M132.7,292.6c0,0,12.2,7.6,21,6.9v35.2c0,0,5,4.3,4,8.5H120c0,0,1.8-12.3,11-15.5L132.7,292.6z"/>
<g class="st1">
	<path d="M288.1,344.2c-0.8,0.3-2,0.6-3.6,0.9c-1.6,0.3-3.5,0.4-5.7,0.5c-2.9,0-5.5-0.4-7.6-1.1c-2.1-0.7-3.9-1.8-5.4-3.1
		c-1.4-1.3-2.5-3-3.2-4.9c-0.7-1.9-1.1-4-1.1-6.4v-33.9h-10.7v-7.8h10.7v-15.2h9.1v15.2h16.6v7.8h-16.6v32.5c0,1.3,0.2,2.5,0.6,3.6
		c0.4,1.1,1,2,1.8,2.8c0.8,0.8,1.8,1.4,3.1,1.9c1.2,0.4,2.8,0.7,4.5,0.7c1.2,0,2.5-0.1,3.8-0.3c1.3-0.2,2.6-0.4,3.7-0.8V344.2z"/>
	<path d="M333,337.9h-0.2c-0.7,0.9-1.7,1.9-2.8,2.8c-1.1,0.9-2.4,1.7-3.9,2.5c-1.5,0.7-3.1,1.3-4.9,1.7c-1.8,0.4-3.6,0.6-5.6,0.6
		c-2.7,0-5.2-0.4-7.4-1.2c-2.2-0.8-4.2-2-5.8-3.5c-1.6-1.5-2.9-3.4-3.8-5.7c-0.9-2.2-1.3-4.7-1.3-7.6c0-2.8,0.5-5.3,1.5-7.4
		c1-2.2,2.4-4,4.2-5.6c1.8-1.5,4-2.7,6.5-3.5s5.3-1.2,8.3-1.2c2.9,0,5.6,0.3,8,0.8s4.6,1.1,6.6,1.8h0.2v-3.9c0-1.5-0.1-2.9-0.3-4
		c-0.2-1.2-0.5-2.2-1-3.1c-1-1.9-2.6-3.4-4.9-4.7s-5.2-1.8-9-1.8c-2.8,0-5.5,0.3-7.9,0.8c-2.5,0.5-5,1.3-7.4,2.2v-7.6
		c0.9-0.5,2-0.9,3.3-1.3c1.3-0.4,2.6-0.8,4-1.1s2.9-0.5,4.5-0.7c1.6-0.2,3.1-0.2,4.7-0.2c5.6,0,10.2,1,13.8,3s6.1,4.6,7.7,7.9
		c0.6,1.3,1,2.6,1.3,4.1c0.3,1.5,0.4,3.2,0.4,5v37.1H334L333,337.9z M332.6,319.6c-1.7-0.5-3.7-0.9-6-1.3c-2.3-0.4-4.8-0.7-7.6-0.7
		c-3.9,0-6.9,0.8-9,2.5c-2.2,1.6-3.3,4.2-3.3,7.6c0,1.7,0.3,3.2,0.8,4.5c0.5,1.3,1.3,2.4,2.2,3.2c1,0.8,2.1,1.5,3.4,1.9
		c1.3,0.4,2.7,0.6,4.2,0.6c1.9,0,3.8-0.3,5.4-0.8c1.7-0.6,3.2-1.2,4.5-2c1.3-0.8,2.4-1.6,3.3-2.3c0.9-0.8,1.6-1.4,2-1.8V319.6z"/>
	<path d="M365.7,303.2c0,1.5,0.3,2.8,1,3.8c0.6,1,1.5,1.8,2.6,2.4c1.1,0.6,2.3,1.1,3.8,1.5c1.4,0.4,2.9,0.7,4.4,1.1
		c2.1,0.5,4.1,1,6,1.6c1.9,0.6,3.6,1.4,5.2,2.5c1.6,1.1,2.9,2.7,3.8,4.6c1,1.9,1.5,4.4,1.5,7.5c0,2.8-0.5,5.3-1.6,7.5
		c-1.1,2.2-2.6,4-4.6,5.4s-4.4,2.6-7.1,3.3c-2.8,0.8-5.8,1.1-9.1,1.1c-2,0-3.9-0.1-5.5-0.3c-1.7-0.2-3.1-0.5-4.4-0.8
		c-1.3-0.3-2.4-0.7-3.3-1c-0.9-0.4-1.6-0.7-2.2-1v-7.6c2.3,0.9,4.6,1.7,6.8,2.2c2.3,0.5,4.8,0.8,7.5,0.8c2.1,0,4.1-0.2,5.8-0.6
		c1.7-0.4,3.2-1,4.5-1.7s2.2-1.7,2.9-2.9c0.7-1.2,1-2.5,1-4c0-1.6-0.3-2.9-0.9-3.9c-0.6-1-1.4-1.9-2.5-2.5c-1-0.7-2.2-1.2-3.6-1.6
		c-1.4-0.4-2.8-0.8-4.3-1.2c-2-0.4-3.9-0.9-6-1.5s-3.8-1.4-5.5-2.5s-3-2.5-4-4.3s-1.5-4.2-1.5-7c0-2.9,0.5-5.5,1.6-7.6
		c1.1-2.1,2.5-3.9,4.3-5.3c1.8-1.4,3.9-2.5,6.3-3.2c2.4-0.7,4.9-1.1,7.6-1.1c3.1,0,5.9,0.3,8.6,0.9s5,1.3,7.2,2.2v7.7
		c-2.3-0.9-4.6-1.6-6.9-2.2c-2.3-0.6-4.8-0.9-7.2-0.9c-2.1,0-3.9,0.2-5.4,0.6c-1.5,0.4-2.7,1-3.7,1.8c-1,0.8-1.6,1.7-2.1,2.7
		C365.9,300.9,365.7,302,365.7,303.2z"/>
	<path d="M443.8,288.4h11.8L428.4,314l27.1,30.1h-11.3l-26.7-29.6h-0.1v29.6h-9.1v-84.8h9.1v54h0.1L443.8,288.4z"/>
	<path d="M503.2,344.7c-6.7,0-14.3-1.7-21.3-5.1v4.6h-14.6V229.5h14.6v39.7c7.2-3.8,13.3-4.9,21.1-4.9c16.9,0,30.2,10.6,30.2,31.9
		v19.2C533.2,334.4,519.5,344.7,503.2,344.7z M518.5,296.2c0-13.9-6.7-18-15.4-18c-6.8,0-13.5,1.3-21.3,4.2v44.3
		c7.6,2.9,15.2,4.2,21.1,4.2c9.3,0,15.6-4.6,15.6-15.4V296.2z"/>
	<path d="M587.9,344.1h-14.3c-16.7,0-27.4-10.5-27.4-26v-27.2c0-15.6,10.6-26,27.2-26h14.3c16.7,0,27.4,10.4,27.4,26v27.2
		C615.1,333.6,604.4,344.1,587.9,344.1z M600.4,290.9c0-8.2-3.6-12.3-12.5-12.3h-14.3c-9.1,0-12.7,4.2-12.7,12.3v27.2
		c0,8.2,3.6,12.4,12.5,12.4h14.3c9.1,0,12.7-4.2,12.7-12.4V290.9z"/>
	<path d="M663.7,344.8c-15.4,0-24.1-7.6-24.1-22.4V278h-11.4v-13.3h11.4v-23.4H654v23.4h20.1V278H654v43.5c0,7,2.5,9.5,9.7,9.5
		s12.4-0.8,19-2.3v14.3C677,344.1,670.7,344.8,663.7,344.8z"/>
</g>
<g class="st1">
</g>
<circle class="st1" cx="89" cy="248.7" r="10.7"/>
<circle class="st1" cx="225.5" cy="248.7" r="10.7"/>
<circle class="st1" cx="265.5" cy="248.7" r="10.7"/>
<circle class="st1" cx="310.3" cy="248.7" r="10.7"/>
<circle class="st1" cx="355" cy="248.7" r="10.7"/>
</svg>
