<?xml version="1.0" encoding="utf-8"?>
<!-- Generator: Adobe Illustrator 19.0.0, SVG Export Plug-In . SVG Version: 6.00 Build 0)  -->
<svg version="1.1" id="Calque_1" xmlns="http://www.w3.org/2000/svg" xmlns:xlink="http://www.w3.org/1999/xlink" x="0px" y="0px"
	 viewBox="0 0 798 454" style="enable-background:new 0 0 798 454;" xml:space="preserve">
<style type="text/css">
	.st0{opacity:0.2;}
	.st1{fill:#FFFFFF;}
</style>
<g class="st0">
	<path d="M47.5,285.6v60.8h-9.8v-60.8H14v-9.5h57.2v9.5H47.5z"/>
	<path d="M122.1,346.4l-9.3-27.7H90v27.7h-9.8v-70.2h30.7c14.5,0,21.5,6.5,21.5,20.4v3.4c0,7.6-4.3,15-10.4,17.1l10.6,29.3H122.1z
		 M122.6,296.5c0-8.7-2.2-10.9-11.7-10.9H90v23.6h24.6c5.2,0,8-3.3,8-9.2V296.5z"/>
	<path d="M188.7,346.4l-7.7-21.6h-24.8l-7.9,21.6h-11l27-70.2h8.3l27.1,70.2H188.7z M168.5,292.1l-8.6,23.1h17.2L168.5,292.1z"/>
	<path d="M254.1,346.4l-37.6-51.6v51.6h-9.9v-70.2h8.3l37.6,51.7v-51.7h9.9v70.2H254.1z"/>
	<path d="M297.1,347.3c-6.5,0-19.4-2.2-23.1-3.3v-9.6c4.8,1.5,16.3,3.7,23.1,3.7c13.3,0,16.4-3.4,16.4-11.5
		c0-17.3-41.1-4.2-41.1-31.8c0-10.7,7.4-19.5,25.3-19.5c7.9,0,16.3,1.6,20.6,2.9v9.6c-4.4-1.4-14.7-3.1-20.6-3.1
		c-12.8,0-15.5,3.8-15.5,10.1c0,18,41.1,3.4,41.1,31.8C323.4,340.8,315.3,347.3,297.1,347.3z"/>
	<path d="M342.5,285.6v20.1h31.1v9.3h-31.1v31.3h-9.8v-70.2h46.4v9.5H342.5z"/>
	<path d="M418.6,346.4h-9.2c-14.5,0-23.3-8.5-23.3-22.3v-47.9h9.8V324c0,8.7,4.1,12.9,13.5,12.9h9.2c9.5,0,13.5-4.2,13.5-12.9v-47.9
		h9.8V324C442,337.9,433.1,346.4,418.6,346.4z"/>
	<path d="M474.6,347.3c-6.5,0-19.4-2.2-23.1-3.3v-9.6c4.8,1.5,16.3,3.7,23.1,3.7c13.3,0,16.5-3.4,16.5-11.5
		c0-17.3-41.1-4.2-41.1-31.8c0-10.7,7.4-19.5,25.3-19.5c7.9,0,16.3,1.6,20.6,2.9v9.6c-4.4-1.4-14.7-3.1-20.6-3.1
		c-12.8,0-15.5,3.8-15.5,10.1c0,18,41.1,3.4,41.1,31.8C500.9,340.8,492.8,347.3,474.6,347.3z"/>
	<path d="M510.3,346.4v-70.2h48.1v9.5h-38.3v20.1h32.8v9.3h-32.8v21.9h38.3v9.5H510.3z"/>
</g>
<rect x="510.3" y="285.6" class="st1" width="9.8" height="20.1"/>
<rect x="332.7" y="285.6" class="st1" width="9.8" height="20.1"/>
<rect x="510.3" y="315.1" class="st1" width="9.8" height="21.9"/>
<polygon class="st1" points="156.2,324.8 159.9,315.2 177.1,315.2 181,324.8 "/>
<rect x="622.3" y="276.1" class="st0" width="11.7" height="74.7"/>
<rect x="643" y="276.1" class="st0" width="55" height="74.7"/>
<rect x="652.9" y="286.2" class="st1" width="35.3" height="54.7"/>
<rect x="598.4" y="335.8" class="st0" width="15" height="15"/>
</svg>
